<svg width="32" height="32" viewBox="0 0 32 32" fill="none" xmlns="http://www.w3.org/2000/svg">
<g clip-path="url(#clip0_107_2)">
<path d="M28.3516 26.6973C28.3516 27.0254 28.293 27.3301 28.1758 27.6113C28.0586 27.8926 27.8945 28.1387 27.6836 28.3496C27.4727 28.5488 27.2266 28.707 26.9453 28.8242C26.6641 28.9414 26.3652 29 26.0488 29H15.748C14.7754 29 13.791 28.8945 12.7949 28.6836C11.7988 28.4727 10.832 28.1504 9.89453 27.7168C8.96875 27.2715 8.0957 26.709 7.27539 26.0293C6.45508 25.3496 5.73438 24.5469 5.11328 23.6211C4.50391 22.6836 4.02344 21.6172 3.67188 20.4219C3.32031 19.2148 3.14453 17.873 3.14453 16.3965V3.79297H7.71484V16.3965C7.71484 17.6855 7.89062 18.7754 8.24219 19.666C8.60547 20.5566 9.0625 21.3008 9.61328 21.8984C10.1641 22.4961 10.7676 22.9648 11.4238 23.3047C12.0801 23.6445 12.7012 23.8965 13.2871 24.0605C13.8848 24.2246 14.4062 24.3301 14.8516 24.377C15.3086 24.4121 15.6074 24.4297 15.748 24.4297H23.7812V3.79297H28.3516V26.6973Z" fill="black"/>
</g>
<defs>
<clipPath id="clip0_107_2">
<rect width="32" height="32" fill="white"/>
</clipPath>
</defs>
</svg>
